<svg xmlns="http://www.w3.org/2000/svg" xmlns:xlink="http://www.w3.org/1999/xlink" viewBox="0 0 320.14 264.51"><defs><style>.cls-1{fill:url(#New_Gradient_Swatch_copy);}.cls-2{fill:url(#New_Gradient_Swatch_copy-2);}.cls-3{fill:url(#New_Gradient_Swatch_copy-3);}.cls-4{fill:url(#New_Gradient_Swatch_copy-4);}.cls-5{fill:#fff;}</style><radialGradient id="New_Gradient_Swatch_copy" cx="245.48" cy="55.27" r="65.68" gradientUnits="userSpaceOnUse"><stop offset="0" stop-color="#fff"/><stop offset="0.5" stop-color="#fff"/><stop offset="0.79" stop-color="#959595"/><stop offset="1" stop-color="#4b4b4b"/></radialGradient><radialGradient id="New_Gradient_Swatch_copy-2" cx="238.3" cy="216.89" r="58.4" xlink:href="#New_Gradient_Swatch_copy"/><radialGradient id="New_Gradient_Swatch_copy-3" cx="82.9" cy="216.89" r="58.4" xlink:href="#New_Gradient_Swatch_copy"/><radialGradient id="New_Gradient_Swatch_copy-4" cx="74.66" cy="55.27" r="65.68" xlink:href="#New_Gradient_Swatch_copy"/></defs><title>Asset 1</title><g id="Layer_2" data-name="Layer 2"><g id="Layer_1-2" data-name="Layer 1"><polygon class="cls-1" points="320.14 39.65 264.79 0 170.83 110.53 261.78 30.31 320.14 39.65"/><polygon class="cls-2" points="305.78 217.11 263.78 264.51 170.83 169.26 257.54 235.01 305.78 217.11"/><polygon class="cls-3" points="15.42 217.11 57.42 264.51 150.37 169.26 63.66 235.01 15.42 217.11"/><polygon class="cls-4" points="0 39.65 55.34 0 149.31 110.53 58.36 30.31 0 39.65"/><path class="cls-5" d="M75.25,151.08,68.41,130h1l6.49,20.26L81.78,130h1.09l5.92,20.29L95.29,130h.89l-6.81,21.12H88.21l-4.6-15.62L82.33,131h0l-1.24,4.44-4.64,15.62Z"/><path class="cls-5" d="M108.21,129.64a9.69,9.69,0,0,1,5.16,1.33,8.68,8.68,0,0,1,3.34,3.76,14.91,14.91,0,0,1,0,11.58,8.68,8.68,0,0,1-3.34,3.76,10.6,10.6,0,0,1-10.28,0,8.79,8.79,0,0,1-3.36-3.76,14.8,14.8,0,0,1,0-11.58,8.79,8.79,0,0,1,3.36-3.76A9.6,9.6,0,0,1,108.21,129.64Zm0,.8a8.53,8.53,0,0,0-4.62,1.23,8.11,8.11,0,0,0-3,3.49,14,14,0,0,0,0,10.72,8.11,8.11,0,0,0,3,3.49,9.37,9.37,0,0,0,9.28,0,8.24,8.24,0,0,0,3-3.49,14,14,0,0,0,0-10.72,8.24,8.24,0,0,0-3-3.49A8.5,8.5,0,0,0,108.21,130.44Z"/><path class="cls-5" d="M139,130v21.12h-1.19l-12.89-18.37L123.8,131h0l.06,2.08v18.05H123V130h1.15L137,148.33l1.12,1.79,0-2.11V130Z"/><path class="cls-5" d="M152,130q5.08,0,7.76,2.62t2.67,7.68c0,3.52-.89,6.21-2.67,8.05s-4.37,2.77-7.76,2.77h-6.56V130Zm0,20.32c3.09,0,5.45-.86,7.06-2.58s2.41-4.19,2.41-7.44q0-4.63-2.41-7.07c-1.61-1.62-4-2.43-7.06-2.43h-5.69v19.52Z"/><path class="cls-5" d="M167.51,151.08V130h14.14v.8H168.41v9.15H179v.8H168.41v9.57h13.75v.8Z"/><path class="cls-5" d="M194.2,130a7.25,7.25,0,0,1,4.94,1.57,5.91,5.91,0,0,1,0,8.53,7.34,7.34,0,0,1-4.92,1.55l-.13,0h-6.69v9.44h-.89V130Zm0,10.85a6.5,6.5,0,0,0,4.32-1.31,5.25,5.25,0,0,0,0-7.41,6.4,6.4,0,0,0-4.32-1.33h-6.82v10.05Zm1.05.09,6.69,10.18h-1l-6.4-9.63Z"/><path class="cls-5" d="M236.47,130v.8h-7.94v20.32h-.89V130.76h-8V130Z"/><polygon class="cls-5" points="243.93 129.96 242.9 129.96 234.29 151.08 235.22 151.08 238.15 143.91 238.16 143.91 238.5 143.08 238.49 143.08 242.77 132.58 243.41 130.89 244.05 132.65 248.31 143.08 248.3 143.08 248.64 143.91 248.65 143.91 251.57 151.08 252.53 151.08 243.93 129.96"/><polygon class="cls-5" points="213.24 129.96 212.21 129.96 203.6 151.08 204.53 151.08 207.46 143.91 207.46 143.91 207.8 143.08 207.8 143.08 208.16 142.19 208.18 142.15 208.18 142.15 212.08 132.58 212.72 130.89 213.36 132.65 217.62 143.08 217.61 143.08 217.95 143.91 217.96 143.91 220.88 151.08 221.84 151.08 213.24 129.96"/></g></g></svg>